<?xml version="1.0" encoding="utf-8"?>
<!-- Generator: Adobe Illustrator 23.0.2, SVG Export Plug-In . SVG Version: 6.00 Build 0)  -->
<svg version="1.1" xmlns="http://www.w3.org/2000/svg" xmlns:xlink="http://www.w3.org/1999/xlink" x="0px" y="0px"
	 viewBox="0 0 200 200" style="enable-background:new 0 0 200 200;" xml:space="preserve">
<style type="text/css">
	.st0{fill:#FFFFFF;}
</style>
<g id="图层_1">
	<g>
		<rect x="60" y="20" width="20" height="20"/>
		<rect x="80" y="20" width="20" height="20"/>
		<rect x="100" y="20" width="20" height="20"/>
		<rect x="80" y="40" width="20" height="20"/>
		<rect x="100" y="40" width="20" height="20"/>
		<rect x="80" y="60" width="20" height="20"/>
		<rect x="100" y="60" width="20" height="20"/>
		<rect x="20" width="20" height="20"/>
		<rect width="20" height="20"/>
		<rect x="40" width="20" height="20"/>
		<rect x="60" width="20" height="20"/>
		<rect x="80" width="20" height="20"/>
		<rect x="100" width="20" height="20"/>
		<rect y="20" width="20" height="20"/>
		<rect x="20" y="20" width="20" height="20"/>
		<rect x="40" y="20" width="20" height="20"/>
		<g>
			<rect x="120" width="20" height="20"/>
			<rect x="140" width="20" height="20"/>
			<rect x="120" y="20" width="20" height="20"/>
			<rect x="140" y="20" width="20" height="20"/>
		</g>
		<g>
			<rect x="160" width="20" height="20"/>
			<rect x="180" width="20" height="20"/>
			<rect x="160" y="20" width="20" height="20"/>
			<rect x="180" y="20" width="20" height="20"/>
		</g>
		<rect x="80" y="80" width="20" height="20"/>
		<rect x="100" y="80" width="20" height="20"/>
		<rect x="80" y="100" width="20" height="20"/>
		<rect x="100" y="100" width="20" height="20"/>
		<rect x="80" y="120" width="20" height="20"/>
		<rect x="100" y="120" width="20" height="20"/>
		<rect x="80" y="140" width="20" height="20"/>
		<rect x="100" y="140" width="20" height="20"/>
		<rect x="80" y="160" width="20" height="20"/>
		<rect x="100" y="160" width="20" height="20"/>
		<rect x="80" y="180" width="20" height="20"/>
		<rect x="100" y="180" width="20" height="20"/>
	</g>
</g>
<g id="距离标注">
</g>
<g id="尺寸标注">
</g>
</svg>
